<?xml version="1.0" standalone="no"?>
<!DOCTYPE svg PUBLIC "-//W3C//DTD SVG 20010904//EN"
 "http://www.w3.org/TR/2001/REC-SVG-20010904/DTD/svg10.dtd">
<svg version="1.0" xmlns="http://www.w3.org/2000/svg"
 width="1200.000000pt" height="1200.000000pt" viewBox="0 0 1200.000000 1200.000000"
 preserveAspectRatio="xMidYMid meet">
<metadata>
Created by potrace 1.11, written by Peter Selinger 2001-2013
</metadata>
<g transform="translate(0.000000,1200.000000) scale(0.100000,-0.100000)"
fill="#000000" stroke="none">
<path d="M2621 8067 l-75 -12 -11 -50 c-15 -66 -27 -87 -76 -128 -71 -61 -171
-69 -248 -20 -23 15 -26 14 -49 -12 -16 -19 -22 -34 -17 -49 4 -12 9 -48 12
-81 9 -112 -66 -209 -183 -239 l-49 -12 -22 -69 c-58 -176 -77 -343 -70 -622
6 -301 43 -476 140 -668 140 -281 339 -437 622 -490 120 -23 326 -16 439 14
340 91 577 381 665 816 62 303 41 707 -50 980 -106 316 -344 552 -634 626 -99
25 -291 33 -394 16z m327 -429 c172 -64 290 -212 342 -428 33 -139 46 -335 32
-502 -7 -79 -21 -181 -32 -228 -66 -271 -249 -453 -471 -467 -208 -13 -380 93
-486 301 -135 265 -133 806 4 1068 74 144 213 253 353 277 76 14 191 4 258
-21z"/>
<path d="M0 6840 l0 -1202 563 5 c344 3 585 9 622 16 156 29 304 149 384 312
53 110 71 180 78 314 14 274 -91 486 -295 594 -42 22 -72 41 -65 41 23 0 143
122 177 179 127 209 119 493 -18 700 -57 86 -111 134 -193 173 -116 55 -168
60 -735 65 l-518 5 0 -1202z m1014 784 c16 -4 50 -28 77 -53 60 -58 84 -131
77 -233 -9 -117 -76 -208 -176 -239 -21 -6 -153 -13 -314 -16 l-278 -6 0 283
0 282 293 -5 c160 -3 305 -9 321 -13z m-139 -944 c166 -11 220 -27 279 -84 59
-58 86 -132 86 -235 0 -114 -21 -173 -84 -236 -40 -41 -64 -55 -102 -64 -29
-7 -174 -15 -351 -18 l-303 -6 0 327 0 326 168 0 c92 0 230 -5 307 -10z"/>
<path d="M3970 6840 l0 -1202 563 5 c343 3 584 10 620 16 167 32 307 152 392
336 47 101 65 194 65 333 0 139 -22 239 -72 335 -44 83 -141 177 -224 218
l-66 33 28 20 c99 71 167 166 211 293 24 69 27 93 27 208 0 119 -2 137 -30
215 -52 148 -151 268 -267 324 -106 52 -177 58 -734 63 l-513 5 0 -1202z m949
791 c92 -11 144 -44 180 -116 31 -59 41 -180 21 -251 -17 -61 -77 -126 -142
-154 -50 -22 -69 -23 -335 -28 l-283 -5 0 282 0 281 243 0 c133 -1 275 -5 316
-9z m46 -962 c77 -14 124 -39 165 -85 127 -146 93 -422 -62 -502 -60 -31 -175
-41 -475 -42 l-233 0 0 318 c0 175 3 322 8 327 10 11 525 -2 597 -16z"/>
<path d="M5870 6841 l0 -1201 200 0 200 0 0 501 0 502 119 -5 c231 -10 243
-24 611 -696 l165 -302 238 0 237 0 -121 238 c-280 546 -338 637 -487 763
l-63 53 87 28 c113 37 188 84 259 160 120 129 173 302 162 531 -3 67 -13 149
-22 182 -43 156 -149 303 -265 364 -34 18 -103 42 -153 53 -85 19 -135 21
-629 25 l-538 5 0 -1201z m1072 756 c90 -53 128 -130 128 -261 0 -111 -21
-176 -73 -230 -67 -70 -102 -77 -439 -83 l-288 -6 0 307 0 308 313 -4 312 -3
47 -28z"/>
<path d="M8460 6840 l0 -1200 458 0 c680 0 796 13 921 105 115 85 214 245 245
397 23 111 21 286 -4 382 -40 158 -142 290 -275 355 l-68 34 29 20 c105 73
200 225 230 367 45 215 -29 459 -181 598 -136 124 -254 142 -942 142 l-413 0
0 -1200z m1025 777 c93 -42 138 -124 137 -255 0 -134 -53 -217 -164 -259 -35
-13 -98 -17 -325 -21 l-283 -4 0 282 0 282 298 -4 c256 -3 303 -6 337 -21z
m-122 -937 c179 -15 256 -59 309 -175 32 -70 33 -228 2 -295 -69 -150 -137
-170 -576 -170 l-248 0 0 325 0 325 198 0 c108 0 250 -5 315 -10z"/>
<path d="M10191 7978 c18 -35 180 -348 360 -696 l329 -632 0 -505 0 -505 195
0 195 0 0 500 0 501 358 686 c196 378 358 693 360 700 3 10 -41 13 -220 13
l-223 0 -227 -472 c-125 -260 -230 -472 -234 -471 -3 1 -109 213 -234 470
l-228 468 -231 3 -231 2 31 -62z"/>
<path d="M7867 6034 c-4 -4 -7 -94 -7 -201 l0 -193 190 0 190 0 -2 198 -3 197
-181 3 c-99 1 -183 -1 -187 -4z"/>
<path d="M3482 4910 c-95 -25 -162 -62 -233 -128 -119 -110 -169 -225 -176
-407 -6 -141 10 -225 60 -319 65 -123 200 -220 341 -245 119 -22 285 -11 399
25 l47 16 0 113 0 113 -59 -24 c-79 -32 -188 -47 -261 -35 -147 24 -235 114
-262 269 -14 84 -1 187 32 253 49 94 143 159 255 174 66 8 177 -10 243 -40
l53 -24 -3 122 -3 122 -50 13 c-27 8 -108 16 -180 18 -108 3 -143 1 -203 -16z"/>
<path d="M10072 4914 c-182 -48 -322 -195 -363 -379 l-12 -55 -104 0 -103 0 0
215 0 215 -125 0 -125 0 0 -545 0 -545 125 0 125 0 0 225 0 226 102 -3 101 -3
14 -65 c48 -239 247 -400 493 -400 326 0 537 252 517 615 -10 166 -55 278
-155 379 -59 60 -148 108 -230 125 -72 15 -196 13 -260 -5z m238 -219 c51 -26
98 -91 121 -165 30 -98 25 -289 -10 -365 -45 -101 -116 -148 -223 -148 -147 0
-226 97 -243 300 -17 194 58 355 182 389 54 15 132 10 173 -11z"/>
<path d="M210 4365 l0 -545 125 0 125 0 2 263 c2 170 6 255 12 242 5 -11 83
-129 173 -262 l164 -243 155 0 c121 0 154 3 148 13 -4 6 -94 132 -201 279
-106 147 -193 272 -193 278 0 9 255 365 363 508 7 9 -22 12 -139 12 l-149 0
-165 -250 -165 -250 -3 250 -2 250 -125 0 -125 0 0 -545z"/>
<path d="M1139 4868 c11 -24 91 -193 180 -377 l160 -335 -21 -35 c-51 -86 -98
-116 -165 -107 -24 3 -57 13 -73 21 l-30 16 0 -115 0 -114 51 -12 c76 -18 177
-8 243 24 110 54 151 121 393 649 102 221 187 408 190 415 4 10 -23 12 -128
10 l-133 -3 -97 -243 c-95 -238 -109 -270 -109 -241 0 8 -44 121 -97 251 l-98
238 -142 0 -142 0 18 -42z"/>
<path d="M2190 4365 l0 -545 125 0 125 0 0 185 0 185 83 0 c165 1 292 45 373
132 71 76 89 124 89 243 0 87 -4 107 -26 155 -30 64 -75 112 -130 140 -79 41
-151 50 -401 50 l-238 0 0 -545z m460 329 c50 -29 72 -73 72 -144 0 -116 -50
-160 -193 -168 l-89 -5 0 173 0 172 88 -4 c64 -3 98 -9 122 -24z"/>
<path d="M4110 4364 l0 -545 268 3 c254 3 270 5 327 27 41 17 77 42 116 80 72
73 94 132 94 256 0 79 -4 97 -29 148 -19 40 -42 69 -74 92 -76 55 -128 68
-299 73 l-153 4 0 204 0 204 -125 0 -125 0 0 -546z m463 -68 c53 -22 71 -50
75 -120 8 -122 -45 -165 -200 -166 l-88 0 0 150 0 150 90 0 c54 0 104 -6 123
-14z"/>
<path d="M5020 4365 l0 -545 125 0 125 0 0 545 0 545 -125 0 -125 0 0 -545z"/>
<path d="M5940 4366 l0 -546 250 0 c264 0 324 7 402 46 70 35 114 78 145 142
37 75 39 185 6 248 -38 71 -138 142 -203 144 -21 1 -16 5 25 27 108 55 155
125 155 233 0 79 -25 129 -88 177 -79 60 -117 66 -419 71 l-273 3 0 -545z
m458 340 c61 -31 79 -93 47 -160 -24 -50 -67 -69 -167 -74 l-88 -4 0 124 c0
69 3 128 8 132 12 14 166 0 200 -18z m31 -440 c54 -29 73 -64 69 -128 -7 -100
-55 -131 -203 -132 l-100 -1 -3 129 c-1 72 0 136 3 144 5 12 23 14 105 9 58
-4 112 -12 129 -21z"/>
<path d="M7207 4868 c-8 -24 -95 -261 -192 -528 -98 -267 -180 -493 -182 -502
-5 -17 6 -18 129 -18 l134 0 39 120 39 120 193 0 192 0 37 -120 37 -120 139 0
138 0 -15 38 c-8 20 -93 258 -189 527 -96 270 -177 498 -181 508 -6 15 -23 17
-155 17 l-148 0 -15 -42z m230 -417 c30 -97 58 -182 60 -188 4 -10 -26 -13
-131 -13 -75 0 -136 3 -136 6 0 3 29 98 65 210 36 112 65 212 66 222 1 9 5 -1
10 -22 5 -22 35 -119 66 -215z"/>
<path d="M8320 4900 c0 -36 -57 -383 -86 -525 -42 -203 -78 -316 -110 -346
-24 -23 -58 -28 -107 -15 l-27 6 0 -99 c0 -114 -4 -110 106 -118 128 -10 221
42 273 153 35 73 84 283 121 514 18 113 34 211 36 218 2 8 33 12 109 12 l105
0 0 -440 0 -440 125 0 125 0 0 545 0 545 -335 0 c-224 0 -335 -3 -335 -10z"/>
<path d="M10740 4810 l0 -100 155 0 155 0 0 -445 0 -445 125 0 125 0 0 445 0
445 155 0 155 0 0 100 0 100 -435 0 -435 0 0 -100z"/>
</g>
</svg>
